<?xml version="1.0" standalone="no"?>
<!DOCTYPE svg PUBLIC "-//W3C//DTD SVG 20010904//EN"
 "http://www.w3.org/TR/2001/REC-SVG-20010904/DTD/svg10.dtd">
<svg version="1.0" xmlns="http://www.w3.org/2000/svg"
 width="329.000000pt" height="191.000000pt" viewBox="0 0 329.000000 191.000000"
 preserveAspectRatio="xMidYMid meet">

<g transform="translate(0.000000,191.000000) scale(0.100000,-0.100000)"
fill="#000000" stroke="none">
<path d="M0 955 l0 -955 1645 0 1645 0 0 955 0 955 -1645 0 -1645 0 0 -955z
m380 231 l0 -135 37 16 c93 39 200 -19 223 -120 29 -131 -101 -244 -223 -194
-20 9 -37 12 -37 6 0 -5 -18 -9 -40 -9 l-40 0 0 285 0 285 40 0 40 0 0 -134z
m1108 -48 l3 -68 39 0 c39 0 40 -1 40 -35 0 -34 -1 -35 -40 -35 l-41 0 3 -87
3 -87 38 -9 c30 -7 37 -13 34 -31 -4 -35 -16 -46 -49 -46 -35 0 -79 24 -99 54
-8 12 -14 53 -16 101 -1 44 -2 86 -2 93 -1 6 -12 12 -26 12 -22 0 -25 4 -25
35 0 31 3 35 25 35 27 0 30 10 26 82 -3 50 5 60 47 56 l37 -3 3 -67z m-544
-72 c18 -8 45 -26 59 -41 26 -29 52 -108 41 -126 -4 -6 -51 -10 -118 -9 -61 1
-117 1 -123 1 -21 -2 -15 -30 12 -56 36 -36 88 -34 125 5 21 23 37 30 64 30
40 0 44 -9 19 -48 -26 -40 -39 -51 -77 -67 -117 -49 -246 33 -246 155 0 121
129 204 244 156z m349 -15 l21 -21 -21 -22 c-19 -19 -25 -20 -53 -8 -22 9 -34
10 -42 2 -18 -18 -2 -39 44 -60 62 -27 83 -55 81 -104 -4 -100 -137 -132 -217
-53 -23 23 -20 32 14 50 28 14 31 14 50 -5 24 -24 53 -26 70 -5 17 20 5 34
-54 60 -64 29 -78 45 -80 94 -1 41 21 76 59 92 33 15 105 3 128 -20z m574 8
c54 -26 81 -64 89 -124 l7 -46 -127 2 c-70 0 -129 -1 -132 -4 -10 -10 19 -55
43 -66 40 -18 73 -13 104 18 21 21 38 29 64 29 43 0 46 -17 11 -63 -65 -84
-200 -87 -269 -6 -41 49 -52 102 -32 160 35 106 140 149 242 100z m391 -1 c12
-10 16 -10 19 0 3 7 21 12 44 12 l38 0 3 -122 c3 -120 4 -123 26 -126 20 -3
23 -8 20 -40 -3 -36 -4 -37 -41 -36 -20 1 -46 9 -56 18 -18 16 -21 16 -60 -3
-52 -27 -97 -26 -150 2 -159 83 -85 332 93 313 26 -3 55 -11 64 -18z m425 2
l26 -20 33 20 c60 37 124 22 165 -39 21 -31 23 -46 23 -152 l0 -119 -45 0 -45
0 0 109 c0 116 -9 141 -50 141 -41 0 -50 -25 -50 -141 l0 -109 -45 0 -45 0 0
109 c0 116 -9 141 -50 141 -41 0 -50 -25 -50 -141 l0 -109 -45 0 -45 0 0 161
0 160 59 -3 c33 -1 63 1 67 5 15 14 72 7 97 -13z"/>
<path d="M409 971 c-20 -20 -29 -39 -29 -61 0 -43 47 -90 90 -90 85 0 123 127
49 165 -43 23 -77 18 -110 -14z"/>
<path d="M831 998 c-50 -27 -37 -38 45 -38 78 0 78 0 59 20 -26 26 -74 34
-104 18z"/>
<path d="M1760 1003 c-19 -7 -50 -34 -50 -43 0 -4 36 -7 79 -7 85 1 97 13 40
42 -29 16 -44 17 -69 8z"/>
<path d="M2126 975 c-20 -18 -26 -34 -26 -65 0 -55 34 -90 88 -90 53 0 87 36
87 92 0 78 -91 117 -149 63z"/>
</g>
</svg>
